<svg id="Layer_1" data-name="Layer 1" xmlns="http://www.w3.org/2000/svg" viewBox="0 0 400 172"><defs><style>.cls-1{fill:#beca7a;}.cls-2{fill:#eabe76;}.cls-3{fill:#cb524f;}.cls-4{fill:#fff;}</style></defs><title>Erudus_logo_white</title><circle class="cls-1" cx="272.78" cy="50.8" r="19.04"/><circle class="cls-2" cx="319.11" cy="50.8" r="19.04"/><circle class="cls-3" cx="365.93" cy="50.8" r="19.04"/><path class="cls-4" d="M272.32,43a7,7,0,0,1,5.45,2.38,7.64,7.64,0,0,1-.11,10.35,7.52,7.52,0,0,1-10.69,0,7.62,7.62,0,0,1-.11-10.34A7,7,0,0,1,272.32,43Zm0,1.79a5.28,5.28,0,0,0-3.92,1.69,5.64,5.64,0,0,0-1.64,4.08,5.79,5.79,0,0,0,.75,2.88,5.31,5.31,0,0,0,2,2.06,5.75,5.75,0,0,0,5.59,0,5.31,5.31,0,0,0,2-2.06,5.8,5.8,0,0,0,.75-2.88,5.63,5.63,0,0,0-1.65-4.08A5.29,5.29,0,0,0,272.31,44.83Z"/><path class="cls-4" d="M312.79,43.4h1.83V46a7.66,7.66,0,0,1,2.43-2.19A6,6,0,0,1,320,43a5,5,0,0,1,2.83.81A4.83,4.83,0,0,1,324.62,46a11.55,11.55,0,0,1,.59,4.28v7.33h-1.83V50.85a16.75,16.75,0,0,0-.2-3.28A3.61,3.61,0,0,0,322,45.44a3.69,3.69,0,0,0-2.35-.71,4.52,4.52,0,0,0-3,1.1,5.15,5.15,0,0,0-1.73,2.72,18.89,18.89,0,0,0-.26,3.87v5.22h-1.83Z"/><path class="cls-4" d="M370.78,52.92l1.54.81a8.41,8.41,0,0,1-1.75,2.41,7,7,0,0,1-2.24,1.39,7.81,7.81,0,0,1-2.82.48,6.8,6.8,0,0,1-5.45-2.28,7.7,7.7,0,0,1-2-5.16,7.61,7.61,0,0,1,1.66-4.83A6.8,6.8,0,0,1,365.41,43a7,7,0,0,1,5.81,2.76,7.7,7.7,0,0,1,1.57,4.87H360a5.79,5.79,0,0,0,1.58,4.07,5.05,5.05,0,0,0,3.79,1.59,6.09,6.09,0,0,0,2.12-.38,5.54,5.54,0,0,0,1.75-1A8.55,8.55,0,0,0,370.78,52.92Zm0-3.83a6.08,6.08,0,0,0-1.07-2.34,5.05,5.05,0,0,0-1.85-1.41,5.68,5.68,0,0,0-2.42-.54,5.22,5.22,0,0,0-3.6,1.35,6.09,6.09,0,0,0-1.66,2.94Z"/><path class="cls-4" d="M97.33,102.19H66.6c.53,8,6.16,14.7,15.32,14.7a18.44,18.44,0,0,0,11.45-4,3,3,0,0,1,1.5-.44,2.78,2.78,0,0,1,2.64,2.73c0,4.58-11,7.13-16.2,7.13-12.59,0-21.66-9.07-21.66-22.36,0-12.33,8.8-22.27,21-22.27,10.57,0,17.52,6.69,19.72,16.46a23.06,23.06,0,0,1,.62,4.4A3.63,3.63,0,0,1,97.33,102.19Zm-16.82-19c-9.07,0-13.56,7.66-13.91,14.17H94.51C94.43,91,90.2,83.17,80.52,83.17Z"/><path class="cls-4" d="M133.08,84.76a14.18,14.18,0,0,0-11.27,6.43v27.38a3.33,3.33,0,0,1-3.35,3.26h-.09a3.29,3.29,0,0,1-3.17-3.26V81.41a3.34,3.34,0,0,1,3.43-3.17,3.27,3.27,0,0,1,3.17,3.17v4.23c2.55-3.35,6.78-7.57,11.71-7.57a3,3,0,0,1,3,3.08A3.59,3.59,0,0,1,133.08,84.76Z"/><path class="cls-4" d="M179.74,121.82a3.31,3.31,0,0,1-3.26-3.26v-3.26a20.8,20.8,0,0,1-15.14,7c-8.89,0-13.56-4.31-13.56-13.56V81.41a3.34,3.34,0,0,1,3.43-3.17,3.27,3.27,0,0,1,3.17,3.17v25.36c0,7.48,3.79,9.69,9.51,9.69A16.27,16.27,0,0,0,176.49,110V81.41a3.34,3.34,0,0,1,3.43-3.17,3.28,3.28,0,0,1,3.17,3.17v37.15A3.33,3.33,0,0,1,179.74,121.82Z"/><path class="cls-4" d="M233.89,121.82a3.31,3.31,0,0,1-3.26-3.26V115a17.9,17.9,0,0,1-14.35,7.4c-11.09,0-18.93-8.45-18.93-22.27,0-13.56,7.75-22.36,18.93-22.36a17.78,17.78,0,0,1,14.35,7.48v-20A3.34,3.34,0,0,1,234.07,62a3.27,3.27,0,0,1,3.17,3.17v53.35A3.33,3.33,0,0,1,233.89,121.82Zm-3.26-31.34a16,16,0,0,0-12.77-6.87c-8.54,0-13.65,7-13.65,16.46s5.11,16.38,13.65,16.38a15.82,15.82,0,0,0,12.77-6.69Z"/><path class="cls-4" d="M285.93,121.82a3.31,3.31,0,0,1-3.26-3.26v-3.26a20.8,20.8,0,0,1-15.14,7c-8.89,0-13.56-4.31-13.56-13.56V81.41a3.33,3.33,0,0,1,3.43-3.17,3.27,3.27,0,0,1,3.17,3.17v25.36c0,7.48,3.79,9.69,9.51,9.69A16.27,16.27,0,0,0,282.67,110V81.41a3.33,3.33,0,0,1,3.43-3.17,3.27,3.27,0,0,1,3.17,3.17v37.15A3.33,3.33,0,0,1,285.93,121.82Z"/><path class="cls-4" d="M319.48,122.35c-6,0-11.45-1.58-15.85-5.46a2.63,2.63,0,0,1-1-2,2.88,2.88,0,0,1,3-2.82,3.17,3.17,0,0,1,1.94.62A19.92,19.92,0,0,0,319.74,117c6.52,0,10-3.08,10-7.31,0-10.3-26.33-4-26.33-19.72,0-6.6,5.72-12.24,15.85-12.24,6.16,0,10.74,1.85,14.44,5a2.5,2.5,0,0,1,.88,1.94A2.65,2.65,0,0,1,332,87.31a2.69,2.69,0,0,1-1.76-.62,18,18,0,0,0-10.92-3.61c-5.81,0-9.42,2.91-9.42,6.69,0,9.33,26.32,3.17,26.32,19.72C336.21,116.63,330.48,122.35,319.48,122.35Z"/></svg>